<?xml version="1.0"?>
<svg xmlns="http://www.w3.org/2000/svg" xmlns:xlink="http://www.w3.org/1999/xlink" version="1.1" viewBox="0 0 192 192" width="30px" height="30px"><g fill="none" fill-rule="nonzero" stroke="none" stroke-width="1" stroke-linecap="butt" stroke-linejoin="miter" stroke-miterlimit="10" stroke-dasharray="" stroke-dashoffset="0" font-family="none" font-weight="none" font-size="none" text-anchor="none" style="mix-blend-mode: normal"><path d="M0,192v-192h192v192z" fill="none"/><g fill="#3f3e3a"><path d="M118.4,19.2l-9.6,9.6l9.6,9.6l9.6,-9.6zM67.2,25.6c-5.2992,0 -9.6,4.3008 -9.6,9.6c0,5.2992 4.3008,9.6 9.6,9.6h9.675c3.5072,0 6.3616,2.7928 6.4,6.3c0.1216,10.592 -0.075,32.1 -0.075,32.1c0,0 12.8,-19.2 12.8,-38.4c0,-9.8048 -6.4,-19.2 -19.2,-19.2zM153.6,25.6c-6.9956,0 -12.8,5.8044 -12.8,12.8v12.8h-6.4c-6.9956,0 -12.8,5.8044 -12.8,12.8v6.4h-0.475c-5.23076,0 -10.32652,1.69584 -14.5125,4.8375l-0.4625,0.35l-14.85,16.0625l9.4,8.70001l13.8125,-14.95c1.93449,-1.39139 4.22757,-2.2 6.6125,-2.2h0.475c6.9956,0 12.8,-5.8044 12.8,-12.8v-6.4h6.4c6.9956,0 12.8,-5.8044 12.8,-12.8v-12.8h19.2v-12.8zM35.2,32l-9.6,9.6l9.6,9.6l9.6,-9.6zM22.4,70.4l-9.6,9.6l9.6,9.6l9.6,-9.6zM163.2,70.4l-9.6,9.6l9.6,9.6l9.6,-9.6zM51.1375,76.7375c-2.60431,0.00068 -4.94854,1.57923 -5.92852,3.99213c-0.97998,2.41289 -0.40029,5.17898 1.46602,6.99537l1.9375,1.9375l-28.75,71.875c-2.6624,6.656 3.944,13.2624 10.6,10.6l71.875,-28.75l1.9375,1.9375c1.60523,1.67194 3.98891,2.34544 6.23174,1.76076c2.24283,-0.58468 3.99434,-2.33619 4.57902,-4.57902c0.58468,-2.24283 -0.08882,-4.62651 -1.76076,-6.23174l-28.6375,-28.6375l-28.9625,-28.9625c-1.20493,-1.23861 -2.85949,-1.9374 -4.5875,-1.9375zM147.2,96c-19.2,0 -38.4,12.8 -38.4,12.8c0,0 21.508,-0.1966 32.1,-0.075c3.5072,0.0384 6.3,2.8928 6.3,6.4v9.675c0,5.2992 4.3008,9.6 9.6,9.6c5.2992,0 9.6,-4.3008 9.6,-9.6v-9.6c0,-12.8 -9.3952,-19.2 -19.2,-19.2zM137.6,140.8l-9.6,9.6l9.6,9.6l9.6,-9.6z"/></g></g></svg>
