<?xml version="1.0"?>
<svg xmlns="http://www.w3.org/2000/svg" xmlns:xlink="http://www.w3.org/1999/xlink" version="1.1" viewBox="0 0 192 192" width="50px" height="50px"><g fill="none" fill-rule="nonzero" stroke="none" stroke-width="1" stroke-linecap="butt" stroke-linejoin="miter" stroke-miterlimit="10" stroke-dasharray="" stroke-dashoffset="0" font-family="none" font-weight="none" font-size="none" text-anchor="none" style="mix-blend-mode: normal"><path d="M0,192v-192h192v192z" fill="none"/><g fill="#3f3e3a"><g id="surface1"><path d="M96,7.68c-36.015,0 -65.28,29.265 -65.28,65.28c0,24.915 14.01,46.605 34.56,57.6c-0.12,0 -0.24,0 -0.36,0c-0.12,0 -0.24,0 -0.36,0c-1.83,0.345 -3.15,1.965 -3.12,3.84v7.68c0.015,1.635 1.08,3.09 2.64,3.6c12.21,4.065 20.4,15.45 20.4,28.32v2.64h-48c-0.12,0 -0.24,0 -0.36,0c-0.12,0 -0.24,0 -0.36,0c-2.115,0.195 -3.675,2.085 -3.48,4.2c0.195,2.115 2.085,3.675 4.2,3.48h119.04c1.38,0.015 2.67,-0.705 3.375,-1.905c0.69,-1.2 0.69,-2.67 0,-3.87c-0.705,-1.2 -1.995,-1.92 -3.375,-1.905h-48v-2.64c0,-12.87 8.19,-24.255 20.4,-28.32c1.56,-0.51 2.625,-1.965 2.64,-3.6v-7.68c0,-2.115 -1.725,-3.84 -3.84,-3.84c20.55,-10.995 34.56,-32.685 34.56,-57.6c0,-36.015 -29.265,-65.28 -65.28,-65.28zM96,15.36c31.86,0 57.6,25.74 57.6,57.6c0,31.86 -25.74,57.6 -57.6,57.6c-31.86,0 -57.6,-25.74 -57.6,-57.6c0,-31.86 25.74,-57.6 57.6,-57.6zM134.4,72.96c-2.115,0 -3.84,1.725 -3.84,3.84c0,2.115 1.725,3.84 3.84,3.84c2.115,0 3.84,-1.725 3.84,-3.84c0,-2.115 -1.725,-3.84 -3.84,-3.84zM122.88,84.48c-2.115,0 -3.84,1.725 -3.84,3.84c0,2.115 1.725,3.84 3.84,3.84c2.115,0 3.84,-1.725 3.84,-3.84c0,-2.115 -1.725,-3.84 -3.84,-3.84zM138.24,88.32c-2.115,0 -3.84,1.725 -3.84,3.84c0,2.115 1.725,3.84 3.84,3.84c2.115,0 3.84,-1.725 3.84,-3.84c0,-2.115 -1.725,-3.84 -3.84,-3.84zM111.36,96c-2.115,0 -3.84,1.725 -3.84,3.84c0,2.115 1.725,3.84 3.84,3.84c2.115,0 3.84,-1.725 3.84,-3.84c0,-2.115 -1.725,-3.84 -3.84,-3.84zM126.72,99.84c-2.115,0 -3.84,1.725 -3.84,3.84c0,2.115 1.725,3.84 3.84,3.84c2.115,0 3.84,-1.725 3.84,-3.84c0,-2.115 -1.725,-3.84 -3.84,-3.84zM99.84,107.52c-2.115,0 -3.84,1.725 -3.84,3.84c0,2.115 1.725,3.84 3.84,3.84c2.115,0 3.84,-1.725 3.84,-3.84c0,-2.115 -1.725,-3.84 -3.84,-3.84zM115.2,111.36c-2.115,0 -3.84,1.725 -3.84,3.84c0,2.115 1.725,3.84 3.84,3.84c2.115,0 3.84,-1.725 3.84,-3.84c0,-2.115 -1.725,-3.84 -3.84,-3.84zM69.12,138.24h53.76v1.56c-13.755,5.85 -23.04,19.065 -23.04,34.2v2.64h-7.68v-2.64c0,-15.135 -9.285,-28.35 -23.04,-34.2z"/></g></g></g></svg>
