<?xml version="1.0"?>
<svg xmlns="http://www.w3.org/2000/svg" xmlns:xlink="http://www.w3.org/1999/xlink" version="1.1" viewBox="0 0 192 192" width="50px" height="50px"><g fill="none" fill-rule="nonzero" stroke="none" stroke-width="1" stroke-linecap="butt" stroke-linejoin="miter" stroke-miterlimit="10" stroke-dasharray="" stroke-dashoffset="0" font-family="none" font-weight="none" font-size="none" text-anchor="none" style="mix-blend-mode: normal"><path d="M0,192v-192h192v192z" fill="none"/><g fill="#3f3e3a"><g id="surface1"><path d="M38.565,11.49c-1.125,-0.045 -2.22,0.42 -2.985,1.26c0,0 -16.38,17.85 -16.38,48.69c-0.015,1.38 0.705,2.67 1.905,3.375c1.2,0.69 2.67,0.69 3.87,0c1.2,-0.705 1.92,-1.995 1.905,-3.375c0,-28.185 14.34,-43.47 14.34,-43.47c1.035,-1.095 1.335,-2.7 0.765,-4.095c-0.57,-1.41 -1.905,-2.34 -3.42,-2.385zM99.84,11.52c-10.605,0 -19.2,8.595 -19.2,19.2c0,0.645 0.045,1.275 0.12,1.92c-0.51,0.12 -0.99,0.345 -1.425,0.66l-54.735,39.525c-0.24,0.18 -0.45,0.39 -0.645,0.615c-0.075,0.075 -0.18,0.09 -0.255,0.18c0,-0.015 0,-0.015 0,0c-5.97,5.955 -5.97,15.75 0,21.72c5.955,5.97 15.75,5.97 21.72,0c1.065,-1.065 1.32,-2.445 1.305,-3.33c-0.03,-0.885 -0.21,-1.5 -0.42,-2.07c-0.405,-1.14 -0.975,-2.13 -1.665,-3.195c-1.395,-2.145 -3.315,-4.515 -5.415,-6.765c-1.62,-1.71 -3.315,-3.255 -5.025,-4.605l48.9,-35.31c3.375,6.075 9.78,9.84 16.74,9.855c10.605,0 19.2,-8.595 19.2,-19.2c0,-10.605 -8.595,-19.2 -19.2,-19.2zM61.635,15.33c-0.855,-0.03 -1.71,0.225 -2.415,0.735c0,0 -13.14,9.3 -13.14,26.175c-0.015,1.38 0.705,2.67 1.905,3.375c1.2,0.69 2.67,0.69 3.87,0c1.2,-0.705 1.92,-1.995 1.905,-3.375c0,-12.93 9.9,-19.905 9.9,-19.905c1.35,-0.93 1.965,-2.64 1.515,-4.23c-0.465,-1.59 -1.875,-2.7 -3.54,-2.775zM126.18,25.41c0.975,4.89 0.6,10.065 -1.275,14.94l6.81,3.66l-22.83,10.485l-0.015,0.03c-5.4,1.875 -9.015,6.96 -9.03,12.675c0,1.5 0.27,3 0.765,4.425v0.015l15.195,58.56l-18.495,35.82l0.015,0.015c-0.855,1.47 -1.32,3.135 -1.32,4.845c0,5.295 4.305,9.6 9.6,9.6c3.885,0 7.38,-2.34 8.865,-5.925l19.68,-39.51l4.47,-34.44c0.78,-6.15 0.39,-12.285 -1.53,-18.42l-5.76,-22.29l17.76,-6.765v-0.06c2.745,-1.245 4.515,-3.975 4.515,-6.99c0,-2.55 -1.26,-4.92 -3.36,-6.36v-0.015zM28.47,80.625c1.41,0.96 3.36,2.7 5.16,4.62c1.77,1.89 3.39,3.93 4.41,5.475c-2.91,1.605 -6.42,1.68 -8.91,-0.81c-2.595,-2.595 -2.505,-6.33 -0.66,-9.285zM145.515,107.145l-3.915,30.165l-2.865,5.745l11.4,30.405l0.015,-0.015c1.125,4.05 4.8,7.035 9.21,7.035c5.31,0 9.6,-4.29 9.6,-9.6c0,-1.41 -0.33,-2.745 -0.87,-3.945l0.03,-0.015z"/></g></g></g></svg>
