<?xml version="1.0"?>
<svg xmlns="http://www.w3.org/2000/svg" xmlns:xlink="http://www.w3.org/1999/xlink" version="1.1" viewBox="0 0 192 192" width="30px" height="30px"><g fill="none" fill-rule="nonzero" stroke="none" stroke-width="1" stroke-linecap="butt" stroke-linejoin="miter" stroke-miterlimit="10" stroke-dasharray="" stroke-dashoffset="0" font-family="none" font-weight="none" font-size="none" text-anchor="none" style="mix-blend-mode: normal"><path d="M0,192v-192h192v192z" fill="none"/><g fill="#ffffff"><path d="M96.575,19.2c-31.7312,0 -49.7255,17.7781 -50.2375,43.5125v1.2875h28.0125v-1.2875c0.61439,-11.3664 8.4777,-18.7 20.3625,-18.7c11.7824,0 19.6375,6.8122 19.6375,16.425c0,9.6128 -4.0313,14.5759 -17.3625,22.5375c-14.2656,8.3712 -19.9565,17.6749 -18.6125,34.2125l0.1625,4.4125h27.4375v-4.2c0,-9.92 3.8278,-14.9948 17.575,-22.95c14.5728,-8.58239 22.1125,-19.4303 22.1125,-34.9375c0,-23.8784 -19.5259,-40.3125 -49.0875,-40.3125zM92.85,140.8c-10.51519,0 -17.075,6.1044 -17.075,16.05c0,9.85601 6.5662,15.95 17.075,15.95c10.5088,0 16.9875,-6.094 16.9875,-15.95c0,-9.94559 -6.47229,-16.05 -16.9875,-16.05z"/></g></g></svg>
